<?xml version="1.0" standalone="no"?>
<!DOCTYPE svg PUBLIC "-//W3C//DTD SVG 20010904//EN"
 "http://www.w3.org/TR/2001/REC-SVG-20010904/DTD/svg10.dtd">
<svg version="1.0" xmlns="http://www.w3.org/2000/svg"
 width="243.000000pt" height="243.000000pt" viewBox="0 0 243.000000 243.000000"
 preserveAspectRatio="xMidYMid meet">
<metadata>
Created by potrace 1.11, written by Peter Selinger 2001-2013
</metadata>
<g transform="translate(0.000000,243.000000) scale(0.100000,-0.100000)"
fill="#000000" stroke="none">
<path d="M649 1760 c-69 -11 -158 -49 -210 -91 -44 -35 -139 -173 -139 -203 0
-18 4 -16 33 11 36 34 87 63 113 63 12 0 15 -6 11 -22 -10 -49 -79 -272 -193
-632 -20 -63 -31 -113 -26 -118 10 -10 549 -12 615 -2 169 25 273 94 326 217
44 103 34 210 -25 256 l-24 19 37 23 c147 89 218 285 144 400 -43 69 -96 81
-381 85 -124 2 -250 -1 -281 -6z m371 -203 c20 -10 26 -21 28 -58 2 -38 -2
-52 -24 -78 -44 -53 -77 -64 -201 -69 -95 -4 -113 -2 -113 10 0 8 13 55 30
104 16 49 30 90 30 91 1 15 220 15 250 0z m-148 -389 c48 -14 62 -38 55 -96
-10 -93 -102 -141 -270 -142 -50 0 -69 4 -73 15 -8 19 51 216 68 226 20 13
175 11 220 -3z"/>
<path d="M1550 1748 c0 -11 -38 -136 -136 -443 -58 -183 -79 -310 -63 -379 24
-102 67 -147 160 -167 121 -26 542 -9 574 23 5 5 64 232 61 235 -1 1 -44 -5
-96 -13 -93 -16 -294 -15 -347 1 -12 4 -27 20 -34 37 -13 31 -4 88 34 213 61
203 93 314 117 403 l28 102 -149 0 c-107 0 -149 -3 -149 -12z"/>
</g>
</svg>
